<svg xmlns="http://www.w3.org/2000/svg" aria-hidden="true" style="position:absolute;width:0;height:0;overflow:hidden">
  <defs>
    <symbol id="vector-down" viewBox="0 0 48 32">
      <path fill="#f7f7f7" d="M1.454 3.454a3.6 3.6 0 0 1 5.091 0l17.454 17.454L41.453 3.454a3.6 3.6 0 1 1 5.091 5.091l-20 20a3.6 3.6 0 0 1-5.091 0l-20-20a3.6 3.6 0 0 1 0-5.091z" style="fill:var(--color1, #f7f7f7)"/>
    </symbol>
    <symbol id="vector-right" viewBox="0 0 18 32">
      <path d="M.586 31.414a2 2 0 0 1 0-2.828L13.172 16 .586 3.414A2 2 0 1 1 3.414.586l14 14a2 2 0 0 1 0 2.828l-14 14a2 2 0 0 1-2.828 0z"/>
    </symbol>
    <symbol id="vector-left" viewBox="0 0 18 32">
      <path d="M17.414 31.414a2 2 0 0 0 0-2.828L4.828 16 17.414 3.414A2 2 0 1 0 14.586.586l-14 14a2 2 0 0 0 0 2.828l14 14a2 2 0 0 0 2.828 0z"/>
    </symbol>
    <symbol id="btn-close" viewBox="0 0 32 32">
      <path fill="none" stroke="#f7f7f7" stroke-linecap="round" stroke-linejoin="round" stroke-width="3.556" d="M30.222 1.778 1.778 30.222m0-28.444 28.444 28.444" style="stroke:var(--color1, #f7f7f7)"/>
    </symbol>
    <symbol id="twitter" viewBox="0 0 32 32">
      <path  d="M19.486 3.445a6.974 6.974 0 0 1 7.28 1.45c1.181-.414 2.3-.99 3.324-1.713a1 1 0 0 1 1.548 1.054 11.29 11.29 0 0 1-2.683 4.997c.029.253.043.508.044.763v.003c0 8.017-3.854 13.867-9.363 16.799-5.486 2.92-12.512 2.895-18.789-.592a1 1 0 0 1 .526-1.873c2.512.1 4.997-.454 7.215-1.595-2.243-1.275-3.812-2.824-4.871-4.496-1.3-2.053-1.794-4.232-1.883-6.198-.089-1.961.223-3.732.552-5.004a16.876 16.876 0 0 1 .63-1.947l.049-.117.014-.033.004-.01.002-.003.001-.001.914.405-.914-.406a1 1 0 0 1 1.732-.168A13.213 13.213 0 0 0 15 10.365v-.317a6.97 6.97 0 0 1 4.486-6.601zM4.364 7.386l-.041.156c-.296 1.144-.568 2.707-.49 4.413.077 1.701.501 3.522 1.575 5.219 1.07 1.69 2.825 3.317 5.665 4.58a.998.998 0 0 1 .156 1.741 16.52 16.52 0 0 1-5.897 2.502c4.692 1.529 9.494 1.099 13.365-.962C23.52 22.468 27 17.318 27 10.002a4.98 4.98 0 0 0-.089-.92 1 1 0 0 1 .28-.9 9.287 9.287 0 0 0 1.479-1.895c-.617.278-1.252.516-1.902.711a1.002 1.002 0 0 1-1.043-.301A4.972 4.972 0 0 0 17 10.027V11.373a1 1 0 0 1-.974 1A15.213 15.213 0 0 1 4.364 7.386z" />
    </symbol>
    <symbol id="facebook" viewBox="0 0 32 32">
      <path  d="M14.579 3.912A7.667 7.667 0 0 1 20 1.666h4a1 1 0 0 1 1 1v5.333a1 1 0 0 1-1 1h-4a.334.334 0 0 0-.334.334v3h4.333a.998.998 0 0 1 .97 1.243l-1.333 5.333a1 1 0 0 1-.97.757h-3v9.667a1 1 0 0 1-1 1h-5.333a1 1 0 0 1-1-1v-9.667h-3a1 1 0 0 1-1-1v-5.333a1 1 0 0 1 1-1h3v-3a7.67 7.67 0 0 1 2.245-5.421zM20 3.667a5.666 5.666 0 0 0-5.667 5.667v4a1 1 0 0 1-1 1h-3v3.333h3a1 1 0 0 1 1 1v9.667h3.333v-9.667a1 1 0 0 1 1-1h3.219l.833-3.333h-4.053a1 1 0 0 1-1-1v-4a2.336 2.336 0 0 1 2.333-2.333h3V3.668h-3z" />
    </symbol>
    <symbol id="instagram" viewBox="0 0 32 32">
      <path  d="M9.333 3.667a5.667 5.667 0 0 0-5.667 5.667v13.333a5.667 5.667 0 0 0 5.667 5.667h13.333a5.667 5.667 0 0 0 5.667-5.667V9.334a5.667 5.667 0 0 0-5.667-5.667H9.333zM1.667 9.333a7.667 7.667 0 0 1 7.667-7.667h13.333a7.667 7.667 0 0 1 7.667 7.667v13.333a7.667 7.667 0 0 1-7.667 7.667H9.334a7.667 7.667 0 0 1-7.667-7.667V9.333z" />
      <path d="M16.694 11.656a4.328 4.328 0 0 0-4.506 2.338 4.339 4.339 0 0 0 .806 5.013 4.33 4.33 0 0 0 5.013.806 4.336 4.336 0 0 0 2.338-4.506 4.335 4.335 0 0 0-3.651-3.651zm-3.553-1.335a6.333 6.333 0 1 1 5.835 11.245A6.333 6.333 0 0 1 13.14 10.32zM22.333 8.667a1 1 0 0 1 1-1h.016a1 1 0 0 1 0 2h-.016a1 1 0 0 1-1-1z" />
    </symbol>
    <symbol id="btn-open" viewBox="0 0 46 32">
      <path  d="M0 1.778C0 .796.796 0 1.778 0h42.667a1.778 1.778 0 1 1 0 3.556H1.778A1.778 1.778 0 0 1 0 1.778zM0 16c0-.982.796-1.778 1.778-1.778h42.667a1.778 1.778 0 1 1 0 3.556H1.778A1.778 1.778 0 0 1 0 16zm0 14.222c0-.982.796-1.778 1.778-1.778h28.444a1.778 1.778 0 1 1 0 3.556H1.778A1.778 1.778 0 0 1 0 30.222z" />
    </symbol>
  </defs>
</svg>
